<?xml version="1.0" encoding="UTF-8"?>
<svg width="24px" height="24px" viewBox="0 0 24 24" version="1.1" xmlns="http://www.w3.org/2000/svg"
>
    <title>Fill 346</title>
    <g id="Page-1" stroke="none" stroke-width="1" fill="none" fill-rule="evenodd">
        <g id="Feed---2" transform="translate(-54.000000, -582.000000)" fill="#000000">
            <path d="M66,583.297297 C60.0972973,583.297297 55.2972973,588.098595 55.2972973,594 C55.2972973,599.901665 60.0972973,604.702703 66,604.702703 C67.6683243,604.702703 69.2795676,604.318703 70.7896216,603.561081 C70.9167568,603.496995 71.0620541,603.476497 71.2021622,603.503741 L76.5107027,604.528865 L75.4157838,599.400649 C75.3846486,599.252238 75.4054054,599.0976 75.4780541,598.963719 C76.2901622,597.415005 76.7027027,595.744865 76.7027027,594 C76.7027027,588.098595 71.9001081,583.297297 66,583.297297 Z M77.3487568,606 C77.3098378,606 77.2683243,605.996368 77.2268108,605.988324 L71.171027,604.818681 C69.5364324,605.602508 67.7980541,606 66,606 C59.3837838,606 54,600.616995 54,594 C54,587.383005 59.3837838,582 66,582 C72.6162162,582 78,587.383005 78,594 C78,595.878227 77.5744865,597.678876 76.7338378,599.355762 L77.9844324,605.216173 C78.0285405,605.42893 77.9662703,605.650508 77.8131892,605.805665 C77.6886486,605.931243 77.5225946,606 77.3487568,606 L77.3487568,606 Z"
                  id="Fill-346"></path>
        </g>
    </g>
</svg>