<?xml version="1.0" encoding="UTF-8"?>
<svg width="24px" height="21px" viewBox="0 0 24 21" version="1.1" xmlns="http://www.w3.org/2000/svg"
>
    <title>Combined Shape</title>
    <g id="Page-1" stroke="none" stroke-width="1" fill="none" fill-rule="evenodd">
        <g id="Feed---2" transform="translate(-96.000000, -584.000000)" fill="#000000">
            <path d="M119.989294,584.459163 C119.993115,584.480658 119.995293,584.495624 119.996872,584.510638 C119.998452,584.525799 119.999386,584.541253 119.999692,584.556687 L119.999998,584.568649 C120.000034,584.581336 119.999648,584.594023 119.99884,584.606689 C119.997271,584.624624 119.99524,584.642266 119.992401,584.659766 C119.989667,584.680573 119.985152,584.701499 119.979456,584.722175 C119.975984,584.73187 119.972847,584.742053 119.969429,584.752144 C119.958403,584.787432 119.943472,584.820914 119.925208,584.853047 L108.493491,604.715118 C108.388843,604.893511 108.20002,605 107.999823,605 C107.967974,605 107.933849,604.99727 107.901999,604.991353 C107.665403,604.949713 107.48113,604.765405 107.440181,604.529445 L105.442759,593.133271 L96.1927366,584.996398 C96.015289,584.83985 95.9538649,584.59001 96.0357637,584.368384 C96.1199376,584.146987 96.3315096,584.000223 96.5681064,584.000223 L119.43154,584.000223 L119.457547,584.000616 C119.481082,584.001712 119.504492,584.004265 119.527636,584.00824 L119.43154,584.000223 C119.478073,584.000223 119.523885,584.005944 119.568065,584.016891 C119.584187,584.020686 119.600128,584.025372 119.615846,584.030748 C119.631749,584.036436 119.647304,584.042554 119.662544,584.049335 C119.678949,584.05631 119.695454,584.064592 119.711556,584.073685 C119.718348,584.077886 119.724825,584.081729 119.731224,584.0857 C119.752163,584.098278 119.772482,584.112767 119.791872,584.128658 C119.802351,584.137693 119.813011,584.147116 119.823316,584.156949 C119.836348,584.168838 119.849218,584.182332 119.861479,584.196549 C119.866734,584.20327 119.872084,584.209783 119.877293,584.216427 C119.891139,584.233273 119.904123,584.251872 119.916108,584.271452 C119.935256,584.302732 119.951015,584.335145 119.963491,584.368259 L119.965599,584.375384 L119.989294,584.459163 L119.989294,584.459163 Z M117.819,586.226 L106.594,593.122 L108.288744,602.7883 L117.819,586.226 Z M117.419,585.137 L98.0764105,585.137929 L106.028,592.133 L117.419,585.137 Z"
                  id="Combined-Shape"></path>
        </g>
    </g>
</svg>